<?xml version="1.0" encoding="UTF-8"?>
<!DOCTYPE svg PUBLIC "-//W3C//DTD SVG 1.1//EN" "http://www.w3.org/Graphics/SVG/1.1/DTD/svg11.dtd">
<svg xmlns="http://www.w3.org/2000/svg" version="1.1" width="512px" height="512px" style="shape-rendering:geometricPrecision; text-rendering:geometricPrecision; image-rendering:optimizeQuality; fill-rule:evenodd; clip-rule:evenodd" xmlns:xlink="http://www.w3.org/1999/xlink">
<g><path style="opacity:0.979" fill="#010000" d="M 108.5,31.5 C 111.518,31.3354 114.518,31.502 117.5,32C 141.575,40.136 165.575,48.4694 189.5,57C 212.695,79.8614 235.528,103.028 258,126.5C 265.132,136.434 269.799,147.434 272,159.5C 273.5,188.821 274.666,218.154 275.5,247.5C 293.836,247.333 312.17,247.5 330.5,248C 336.667,250.167 340.833,254.333 343,260.5C 343.5,272.162 343.667,283.829 343.5,295.5C 377.835,295.333 412.168,295.5 446.5,296C 456.443,298.942 462.609,305.442 465,315.5C 466.9,332.165 468.733,348.832 470.5,365.5C 469.591,378.57 462.924,387.07 450.5,391C 422.5,391.333 394.5,391.667 366.5,392C 364.779,397.05 363.446,402.217 362.5,407.5C 395.502,407.333 428.502,407.5 461.5,408C 489.269,417.353 500.102,436.519 494,465.5C 488.304,480.941 477.471,490.774 461.5,495C 372.167,495.667 282.833,495.667 193.5,495C 167.702,486.501 156.535,468.668 160,441.5C 164.491,423.675 175.658,412.509 193.5,408C 205.162,407.5 216.829,407.333 228.5,407.5C 227.554,402.217 226.221,397.05 224.5,392C 212.031,394.066 201.531,390.566 193,381.5C 188.797,374.366 187.463,366.7 189,358.5C 193.606,339.574 198.44,320.741 203.5,302C 201.68,256.865 199.513,211.698 197,166.5C 194.665,158.164 190.998,150.497 186,143.5C 173.825,131.124 161.658,118.791 149.5,106.5C 134.01,199.106 118.844,291.772 104,384.5C 101.832,391.669 99.6658,398.836 97.5,406C 111.263,430.352 125.429,454.518 140,478.5C 145.861,479.069 151.694,479.903 157.5,481C 159.429,484.256 159.929,487.756 159,491.5C 158.5,493.333 157.333,494.5 155.5,495C 120.833,495.667 86.1667,495.667 51.5,495C 28.5084,488.51 16.5084,473.344 15.5,449.5C 15.2408,443.661 16.0742,437.994 18,432.5C 27.6667,415.167 37.3333,397.833 47,380.5C 55.1019,277.175 63.1019,173.842 71,70.5C 71.4709,68.7536 72.1376,67.087 73,65.5C 85.032,54.2998 96.8653,42.9665 108.5,31.5 Z M 134.5,56.5 C 144.091,58.9748 153.425,62.1415 162.5,66C 157.297,69.3658 151.964,72.5324 146.5,75.5C 142.239,69.3073 138.239,62.974 134.5,56.5 Z"/></g>
<g><path style="opacity:1" fill="#d48c0b" d="M 110.5,52.5 C 112.074,52.9371 113.241,53.9371 114,55.5C 119.938,65.7672 126.272,75.7672 133,85.5C 133.958,87.1992 134.458,89.0326 134.5,91C 119.495,185.194 104.329,279.36 89,373.5C 81.1058,375.449 72.9392,376.116 64.5,375.5C 71.4131,275.463 78.9131,175.463 87,75.5C 94.7285,67.6035 102.562,59.9369 110.5,52.5 Z"/></g>
<g><path style="opacity:1" fill="#d58d0b" d="M 181.5,73.5 C 202.465,93.965 223.299,114.632 244,135.5C 250.188,143.879 254.188,153.212 256,163.5C 257.078,191.495 257.911,219.495 258.5,247.5C 249.494,247.334 240.494,247.5 231.5,248C 226.221,249.616 221.721,252.449 218,256.5C 217.123,228.496 216.123,200.496 215,172.5C 212.65,155.804 205.983,141.138 195,128.5C 181.804,115.638 168.97,102.471 156.5,89C 165.006,83.9702 173.339,78.8035 181.5,73.5 Z"/></g>
<g><path style="opacity:1" fill="#dbdad5" d="M 233.5,263.5 C 254.167,263.5 274.833,263.5 295.5,263.5C 295.5,282.167 295.5,300.833 295.5,319.5C 268.825,319.833 242.158,319.5 215.5,318.5C 219.488,303.548 223.321,288.548 227,273.5C 227.949,269.243 230.115,265.909 233.5,263.5 Z"/></g>
<g><path style="opacity:1" fill="#ed9c0c" d="M 311.5,263.5 C 316.179,263.334 320.845,263.501 325.5,264C 326,264.5 326.5,265 327,265.5C 327.5,302.165 327.667,338.832 327.5,375.5C 288.832,375.667 250.165,375.5 211.5,375C 205.743,372.318 203.576,367.818 205,361.5C 207.012,353.118 209.179,344.785 211.5,336.5C 243.889,335.979 276.222,335.146 308.5,334C 309.893,332.829 310.727,331.329 311,329.5C 311.5,307.503 311.667,285.503 311.5,263.5 Z"/></g>
<g><path style="opacity:1" fill="#6598cd" d="M 343.5,311.5 C 363.511,311.167 383.511,311.5 403.5,312.5C 400.5,319.833 397.5,327.167 394.5,334.5C 377.513,335.499 360.513,335.833 343.5,335.5C 343.5,327.5 343.5,319.5 343.5,311.5 Z"/></g>
<g><path style="opacity:1" fill="#ec9c0c" d="M 420.5,311.5 C 428.585,311.099 436.585,311.599 444.5,313C 446.378,314.543 447.878,316.376 449,318.5C 451.394,335.104 452.727,351.77 453,368.5C 452.167,372 450,374.167 446.5,375C 412.168,375.5 377.835,375.667 343.5,375.5C 343.5,367.5 343.5,359.5 343.5,351.5C 363.901,351.965 384.234,351.465 404.5,350C 410.314,337.396 415.648,324.563 420.5,311.5 Z"/></g>
<g><path style="opacity:1" fill="#926007" d="M 59.5,391.5 C 67.84,391.334 76.1733,391.5 84.5,392C 82.4391,396.849 80.7725,401.849 79.5,407C 79.796,408.888 80.296,410.722 81,412.5C 94.3744,434.75 107.874,456.917 121.5,479C 99.5,479.667 77.5,479.667 55.5,479C 36.2386,472.653 28.7386,459.486 33,439.5C 42.1115,423.606 50.9449,407.606 59.5,391.5 Z"/></g>
<g><path style="opacity:1" fill="#a66d09" d="M 241.5,391.5 C 277.506,391.167 313.506,391.5 349.5,392.5C 348.167,397.167 346.833,401.833 345.5,406.5C 312.167,407.833 278.833,407.833 245.5,406.5C 244.008,401.531 242.675,396.531 241.5,391.5 Z"/></g>
<g><path style="opacity:1" fill="#a66d08" d="M 237.5,424.5 C 255.662,423.338 273.995,423.171 292.5,424C 282.962,435.66 280.128,448.827 284,463.5C 285.93,469.196 288.764,474.363 292.5,479C 274.167,479.667 255.833,479.667 237.5,479C 246.957,466.093 249.457,451.927 245,436.5C 243.226,431.93 240.726,427.93 237.5,424.5 Z"/></g>
<g><path style="opacity:1" fill="#a66d08" d="M 360.5,424.5 C 379.329,423.338 398.329,423.171 417.5,424C 407.962,435.66 405.128,448.827 409,463.5C 410.93,469.196 413.764,474.363 417.5,479C 398.5,479.667 379.5,479.667 360.5,479C 369.957,466.093 372.457,451.927 368,436.5C 366.226,431.93 363.726,427.93 360.5,424.5 Z"/></g>
<g><path style="opacity:1" fill="#cac9c4" d="M 198.5,423.5 C 220.672,423.504 231.505,434.504 231,456.5C 226.04,473.112 214.873,480.612 197.5,479C 181.692,473.884 174.525,463.051 176,446.5C 178.988,434.346 186.488,426.679 198.5,423.5 Z"/></g>
<g><path style="opacity:1" fill="#cac9c4" d="M 321.5,423.5 C 343.672,423.504 354.505,434.504 354,456.5C 349.04,473.112 337.873,480.612 320.5,479C 304.692,473.884 297.525,463.051 299,446.5C 301.988,434.346 309.488,426.679 321.5,423.5 Z"/></g>
<g><path style="opacity:1" fill="#cac8c4" d="M 445.5,423.5 C 468.663,423.162 479.829,434.495 479,457.5C 473.582,473.578 462.416,480.745 445.5,479C 429.4,473.645 422.233,462.478 424,445.5C 427.35,434.318 434.517,426.984 445.5,423.5 Z"/></g>
<g><path style="opacity:1" fill="#050505" d="M 199.5,439.5 C 212.018,439.505 216.851,445.505 214,457.5C 206.966,465.413 199.966,465.413 193,457.5C 189.82,449.532 191.987,443.532 199.5,439.5 Z"/></g>
<g><path style="opacity:1" fill="#050505" d="M 322.5,439.5 C 335.018,439.505 339.851,445.505 337,457.5C 329.966,465.413 322.966,465.413 316,457.5C 312.82,449.532 314.987,443.532 322.5,439.5 Z"/></g>
<g><path style="opacity:1" fill="#050505" d="M 443.5,439.5 C 456.018,439.505 460.851,445.505 458,457.5C 450.966,465.413 443.966,465.413 437,457.5C 433.82,449.532 435.987,443.532 443.5,439.5 Z"/></g>
</svg>
